<svg id="Layer_1" data-name="Layer 1" xmlns="http://www.w3.org/2000/svg" viewBox="0 0 311.99 263.22"><defs><style>.cls-1{fill:#003232;}</style></defs><path class="cls-1" d="M924.82,470.78a2.67,2.67,0,0,0,.56.06,3,3,0,0,0,2.25-1.08,42.44,42.44,0,0,1,14-10.51,40.28,40.28,0,0,1,16.91-3.8h.1a40.37,40.37,0,0,1,16.88,3.83,42.39,42.39,0,0,1,13.84,10.45,2.92,2.92,0,0,0,2.81,1,3.44,3.44,0,0,0,2.53-2.26,3.19,3.19,0,0,0-.64-3.19,48,48,0,0,0-16-11.94,47.22,47.22,0,0,0-5.25-2.06,44.66,44.66,0,0,1,11.32-16.4,3,3,0,0,0,.94-2.9,3.45,3.45,0,0,0-2.33-2.48,3.14,3.14,0,0,0-3.11.73,51,51,0,0,0-13.12,19.46,45.91,45.91,0,0,0-7.91-.73h-.14a45,45,0,0,0-8,.73,51,51,0,0,0-13.11-19.46,3.23,3.23,0,0,0-4.64.23,3,3,0,0,0,.14,4.42,44.69,44.69,0,0,1,11.32,16.41,48.17,48.17,0,0,0-21.21,14,3.16,3.16,0,0,0-.64,3.2A3.42,3.42,0,0,0,924.82,470.78Z" transform="translate(-804.01 -429.37)"/><path class="cls-1" d="M944,521a3.14,3.14,0,0,0,3.17,3.23h22.16a3.23,3.23,0,0,0,0-6.46H947.19A3.14,3.14,0,0,0,944,521Z" transform="translate(-804.01 -429.37)"/><path class="cls-1" d="M936.41,544.31a3.13,3.13,0,0,0,3.16,3.23H977a3.24,3.24,0,0,0,0-6.47h-37.4A3.13,3.13,0,0,0,936.41,544.31Z" transform="translate(-804.01 -429.37)"/><path class="cls-1" d="M976.54,569.07a1.37,1.37,0,0,0,.15-.21A65.08,65.08,0,0,0,989,560a3,3,0,0,0,.22-4.36,3.47,3.47,0,0,0-2.1-1.13,3.17,3.17,0,0,0-2.58.81,53.1,53.1,0,0,1-14.6,9.56,31.19,31.19,0,0,1-16.8,2.38,32.24,32.24,0,0,1-8.25-2.43,2.9,2.9,0,0,0-1.4-.65,38.46,38.46,0,0,1-8.53-5.74,28.75,28.75,0,0,1-3-3,2.92,2.92,0,0,0-4.25-.37,3.36,3.36,0,0,0-.49,4.76h0A38.89,38.89,0,0,0,941,570.27L954,586.64l-.18.19h.33l1.68,2.13A3,3,0,0,0,958,590h.12a3.25,3.25,0,0,0,2.38-1c5.34-5.87,10.18-12.25,14.86-18.42Zm-18.23,12.7-6.55-8.29a39,39,0,0,0,6,.47,36.62,36.62,0,0,0,7.54-.78C963,576.08,960.73,579,958.31,581.77Z" transform="translate(-804.01 -429.37)"/><path class="cls-1" d="M964.45,501a3.28,3.28,0,0,0,2.36-1,3,3,0,0,0,.87-2.26,3.27,3.27,0,0,0-3.23-3.17H952.09a3.25,3.25,0,0,0-2.35,1,3.1,3.1,0,0,0-.88,2.26,3.27,3.27,0,0,0,3.23,3.17Z" transform="translate(-804.01 -429.37)"/><path class="cls-1" d="M1051,547c7.22-11.41,2-26.25-.59-32.1-3.77-8.56-10.32-16.7-18.93-23.53a84.2,84.2,0,0,0-28.82-14.51,156.11,156.11,0,0,0-31.74-5.56l-.37,0a206,206,0,0,0-24.6,0h0a3,3,0,0,0-.52,0,155.85,155.85,0,0,0-31.78,5.56c-11.33,3.38-20.76,8.13-28.81,14.51-8.61,6.83-15.16,15-18.94,23.53a49.12,49.12,0,0,0-4.16,15.92c-.44,6.29.76,11.73,3.58,16.18a28.07,28.07,0,0,0,9.48,9,42.94,42.94,0,0,0,12,4.8,39.94,39.94,0,0,0,9.28,1.1,38.13,38.13,0,0,0,18.46-4.77c8.49-4.66,15.36-12,20.44-21.73,4.15-8,7.11-17.58,8.81-28.58,1-6.22,1.9-12.54,2.82-18.65l0-.14a3.06,3.06,0,0,0-3.4-3.49l-.35.05a3.08,3.08,0,0,0-2.64,2.57l-2.14,14.16c-2.33,15.45-6,31.31-17,42.64a41.43,41.43,0,0,1-10.94,8.15,30.44,30.44,0,0,1-13,3.4h-.79a34.88,34.88,0,0,1-21.12-7c-3.85-3-9.7-10.27-5.76-24.55,2.35-8.52,7.33-16.44,14.8-23.54a70.78,70.78,0,0,1,26.74-16,154.79,154.79,0,0,1,34.59-6.58h.06a3.74,3.74,0,0,0,.67,0h0a200.92,200.92,0,0,1,24.05,0l.24,0a154.81,154.81,0,0,1,34.58,6.58,70.71,70.71,0,0,1,26.74,16c7.48,7.1,12.46,15,14.81,23.54,3.94,14.28-1.92,21.51-5.76,24.55a34.91,34.91,0,0,1-21.92,7,30.43,30.43,0,0,1-13-3.4,41.48,41.48,0,0,1-11-8.15c-11-11.33-14.63-27.19-17-42.64l-2.14-14.16a3.07,3.07,0,0,0-2.64-2.57l-.34-.05a3.05,3.05,0,0,0-3.4,3.49v.09c.92,6.13,1.87,12.47,2.83,18.7,1.7,11,4.66,20.61,8.8,28.58,5.08,9.76,12,17.07,20.45,21.73a38.13,38.13,0,0,0,18.46,4.77,40,40,0,0,0,9.28-1.1,42.88,42.88,0,0,0,12-4.8A28.2,28.2,0,0,0,1051,547Z" transform="translate(-804.01 -429.37)"/><path class="cls-1" d="M836.4,616H835a2.77,2.77,0,0,0-2.76,2.76v3.84c0,3,.49,4.27-2.37,3.32l-18.32-9.6a2.69,2.69,0,0,0-1.27-.32h-3.5a2.76,2.76,0,0,0-2.75,2.76v28.65a2.76,2.76,0,0,0,2.75,2.76h1.42a2.76,2.76,0,0,0,2.75-2.76V628a2.76,2.76,0,0,1,4-2.44l15.78,8.21c1.56.64,1.48,1.42,1.48,2.45v11.24a2.77,2.77,0,0,0,2.76,2.76h1.42a2.76,2.76,0,0,0,2.75-2.76V618.76A2.76,2.76,0,0,0,836.4,616Z" transform="translate(-804.01 -429.37)"/><path class="cls-1" d="M881.12,626.56a2.21,2.21,0,0,0-2.21-2.21h-2.06a2.2,2.2,0,0,0-2.2,2.21v14.2a2.18,2.18,0,0,1-.8,1.7,7.62,7.62,0,0,1-.77.56,11.21,11.21,0,0,1-2,1,12.21,12.21,0,0,1-2.2.67,11,11,0,0,1-2.26.24,11.52,11.52,0,0,1-3.95-.58,6.16,6.16,0,0,1-2.53-1.63,6,6,0,0,1-1.35-2.52,12.75,12.75,0,0,1-.39-3.27V626.56a2.21,2.21,0,0,0-2.21-2.21h-2a2.21,2.21,0,0,0-2.21,2.21v11.3a17.91,17.91,0,0,0,.75,5.41,9.62,9.62,0,0,0,2.35,4,10.24,10.24,0,0,0,4.13,2.48,19,19,0,0,0,6.06.85,18.44,18.44,0,0,0,4.57-.61,18.08,18.08,0,0,0,4.79-2,2.2,2.2,0,0,0,2.2,2.21h2.06a2.21,2.21,0,0,0,2.21-2.21Z" transform="translate(-804.01 -429.37)"/><path class="cls-1" d="M903.28,647.74V631c0-1.34-.27-1.74,1.07-1.74h2.74a2.43,2.43,0,0,0,0-4.85h-2.74c-1.34,0-1.07-.41-1.07-1.75v-3.85a2.42,2.42,0,0,0-2.42-2.43h-1.62a2.42,2.42,0,0,0-2.42,2.43v3.85c0,1.34.27,1.75-1.07,1.75H893a2.43,2.43,0,0,0,0,4.85h2.06c1.34,0,1.75.4,1.75,1.74v16.77a2.42,2.42,0,0,0,2.42,2.43h1.62A2.42,2.42,0,0,0,903.28,647.74Z" transform="translate(-804.01 -429.37)"/><path class="cls-1" d="M952.08,646.93V627.61a3.24,3.24,0,0,0-6.47,0v19.32a3.24,3.24,0,1,0,6.47,0Z" transform="translate(-804.01 -429.37)"/><path class="cls-1" d="M991.81,627.59a13.82,13.82,0,0,0-4.71-2.71,19.06,19.06,0,0,0-8.86-.74,24.12,24.12,0,0,0-2.76.63,18.65,18.65,0,0,0-2.49.92,13.33,13.33,0,0,0-2,1.11v-9.66a3.24,3.24,0,1,0-6.47,0v29.79a3.24,3.24,0,0,0,6.25,1.18,17.5,17.5,0,0,0,2.17,1.13,21.29,21.29,0,0,0,2.37.73,25.41,25.41,0,0,0,2.62.48,21.09,21.09,0,0,0,2.76.18,18.69,18.69,0,0,0,6.09-1,14.24,14.24,0,0,0,4.85-2.71,12.42,12.42,0,0,0,3.2-4.24,12.84,12.84,0,0,0,1.16-5.56,13,13,0,0,0-1.1-5.39A12.39,12.39,0,0,0,991.81,627.59Zm-3.26,12.65a7.12,7.12,0,0,1-1.82,2.47,8.67,8.67,0,0,1-2.93,1.65,12.13,12.13,0,0,1-4,.6,15.88,15.88,0,0,1-2.25-.16,15.53,15.53,0,0,1-2.3-.51,16.25,16.25,0,0,1-2.23-.9l-.39-.21a3.24,3.24,0,0,1-1.68-2.84v-5.72a3.25,3.25,0,0,1,1.42-2.69l.42-.28a13.37,13.37,0,0,1,2.28-1.11,14.25,14.25,0,0,1,2.52-.71,13.78,13.78,0,0,1,2.63-.25,10.76,10.76,0,0,1,3.7.6,8.51,8.51,0,0,1,2.82,1.64,7.08,7.08,0,0,1,2.42,5.34A7.48,7.48,0,0,1,988.55,640.24Z" transform="translate(-804.01 -429.37)"/><path class="cls-1" d="M1031.43,649.27a2.57,2.57,0,0,0,1.46-3.47l-.16-.36a2.62,2.62,0,0,0-3.1-1.45c-.67.18-1.36.35-2.07.5a20.78,20.78,0,0,1-4.43.47,19.69,19.69,0,0,1-4.07-.38,12.89,12.89,0,0,1-3.23-1.08,8.46,8.46,0,0,1-2.33-1.66,6,6,0,0,1-1.35-2.12h24.4c0-.23,0-.49,0-.78s0-.55,0-.8a14.19,14.19,0,0,0-1.1-5.57,13.13,13.13,0,0,0-3.17-4.52,14.7,14.7,0,0,0-5-3,20.71,20.71,0,0,0-13.29,0,15,15,0,0,0-4.92,2.93,12.62,12.62,0,0,0-3.09,4.23,12.16,12.16,0,0,0-1.07,5,12.46,12.46,0,0,0,1.12,5.27,11.81,11.81,0,0,0,3.32,4.26,16.39,16.39,0,0,0,5.49,2.87,25.28,25.28,0,0,0,7.62,1c1.14,0,2.22-.06,3.25-.16a26.41,26.41,0,0,0,3-.45,21.14,21.14,0,0,0,2.71-.74Zm-18.17-16.55a7.31,7.31,0,0,1,1.89-1.61,10.24,10.24,0,0,1,2.64-1.12,12.5,12.5,0,0,1,3.35-.41,12.13,12.13,0,0,1,3.17.39,9.11,9.11,0,0,1,2.53,1.08,7.19,7.19,0,0,1,1.83,1.62,6.39,6.39,0,0,1,1.08,2h-17.6A6.49,6.49,0,0,1,1013.26,632.72Z" transform="translate(-804.01 -429.37)"/><path class="cls-1" d="M1073.43,628.05a14.7,14.7,0,0,0-5-3,20.71,20.71,0,0,0-13.29,0,15,15,0,0,0-4.92,2.93,12.62,12.62,0,0,0-3.09,4.23,12.16,12.16,0,0,0-1.07,5,12.46,12.46,0,0,0,1.12,5.27,11.81,11.81,0,0,0,3.32,4.26,16.39,16.39,0,0,0,5.49,2.87,25.28,25.28,0,0,0,7.62,1c1.14,0,2.22-.06,3.25-.16a26.41,26.41,0,0,0,3-.45,21.14,21.14,0,0,0,2.71-.74h0a2.56,2.56,0,0,0,1.46-3.47l-.16-.36a2.61,2.61,0,0,0-3.1-1.45c-.67.18-1.36.35-2.07.5a20.78,20.78,0,0,1-4.43.47,19.69,19.69,0,0,1-4.07-.38,12.89,12.89,0,0,1-3.23-1.08,8.46,8.46,0,0,1-2.33-1.66,6,6,0,0,1-1.35-2.12h24.4c0-.23,0-.49,0-.78s0-.55,0-.8a14,14,0,0,0-1.1-5.57A13.13,13.13,0,0,0,1073.43,628.05Zm-20.19,6.62a6.49,6.49,0,0,1,1.11-1.95,7.31,7.31,0,0,1,1.89-1.61,10.17,10.17,0,0,1,2.65-1.12,12.42,12.42,0,0,1,3.34-.41,12.13,12.13,0,0,1,3.17.39,9.11,9.11,0,0,1,2.53,1.08,7.19,7.19,0,0,1,1.83,1.62,6.39,6.39,0,0,1,1.08,2Z" transform="translate(-804.01 -429.37)"/><path class="cls-1" d="M1115.43,638.19a6.34,6.34,0,0,0-1.71-2.32,8.09,8.09,0,0,0-2.87-1.53,13.72,13.72,0,0,0-4.06-.54c-.83,0-1.64,0-2.44.1l-2.3.23-2.14.23a16.87,16.87,0,0,1-2,.11,8.15,8.15,0,0,1-1.69-.14,3.12,3.12,0,0,1-1.12-.42,1.61,1.61,0,0,1-.61-.64,1.88,1.88,0,0,1-.19-.83,2.17,2.17,0,0,1,.37-1.21,3.12,3.12,0,0,1,1.14-1,7.27,7.27,0,0,1,2.05-.72,14.82,14.82,0,0,1,3.07-.27,23.55,23.55,0,0,1,5.06.53q1.38.3,2.76.72a2.51,2.51,0,0,0,3.06-1.47l.13-.34a2.48,2.48,0,0,0-1.63-3.34h0c-1-.27-2-.5-3.15-.71s-2.2-.37-3.33-.49a30.72,30.72,0,0,0-3.24-.18,20,20,0,0,0-5.39.67,13.06,13.06,0,0,0-4.12,1.89,8.75,8.75,0,0,0-2.63,2.88,7.38,7.38,0,0,0-.91,3.63,7.85,7.85,0,0,0,.52,2.89,5.81,5.81,0,0,0,1.68,2.33,8.45,8.45,0,0,0,3,1.55,15.28,15.28,0,0,0,4.47.57c.8,0,1.59,0,2.37-.11l2.25-.23,2.07-.23a17.21,17.21,0,0,1,1.83-.11,4.15,4.15,0,0,1,2.64.66,2,2,0,0,1,.8,1.57,2.39,2.39,0,0,1-.38,1.25,3.14,3.14,0,0,1-1.26,1.09,9.26,9.26,0,0,1-2.39.79,19.21,19.21,0,0,1-3.71.3,27.74,27.74,0,0,1-6.45-.74,20.77,20.77,0,0,1-3.69-1.24,2.55,2.55,0,0,0-3.28,1l-.23.39a2.53,2.53,0,0,0,1.24,3.6l.4.15a29.86,29.86,0,0,0,3.53,1.11,35.5,35.5,0,0,0,4,.74,33.44,33.44,0,0,0,4.31.28,25.41,25.41,0,0,0,6.39-.73,14.41,14.41,0,0,0,4.63-2,8.67,8.67,0,0,0,2.79-3,7.86,7.86,0,0,0,.94-3.79A7.49,7.49,0,0,0,1115.43,638.19Z" transform="translate(-804.01 -429.37)"/><path class="cls-1" d="M938.53,625.5a4.66,4.66,0,0,0-.25-1.28,1.7,1.7,0,0,0-1.77-1.11,18.48,18.48,0,0,0-6.82,2.34c-.79.41-1.54.88-2.32,1.29-2.08,1.08-2-.06-2-1.08a1.28,1.28,0,0,0-1.29-1.28h-3.89a1.28,1.28,0,0,0-1.29,1.28v23.22a1.29,1.29,0,0,0,1.29,1.29h3.89a1.29,1.29,0,0,0,1.29-1.29V635.14a1.29,1.29,0,0,1,.28-.82,11.54,11.54,0,0,1,4.32-3.16,19.59,19.59,0,0,1,5.11-1.49s.09,0,.14,0h0C939.45,628.92,938.72,627.84,938.53,625.5Z" transform="translate(-804.01 -429.37)"/><path class="cls-1" d="M947.39,620.58a3.76,3.76,0,0,0,1.46.27,3.81,3.81,0,0,0,1.47-.27,3.43,3.43,0,0,0,1.11-.74,3.29,3.29,0,0,0,.7-1.09,3.69,3.69,0,0,0,0-2.67,3.05,3.05,0,0,0-.7-1.08,3.4,3.4,0,0,0-1.11-.73,3.64,3.64,0,0,0-1.47-.28,3.59,3.59,0,0,0-1.46.28,3.26,3.26,0,0,0-1.1.73,3.08,3.08,0,0,0-.71,1.08,3.83,3.83,0,0,0,0,2.67,3.31,3.31,0,0,0,.71,1.09A3.28,3.28,0,0,0,947.39,620.58Z" transform="translate(-804.01 -429.37)"/><path class="cls-1" d="M893.93,669h-1.55a.44.44,0,0,0-.44.44V676h-8.56v-6.53a.44.44,0,0,0-.44-.44h-1.55a.46.46,0,0,0-.44.44V684.9a.46.46,0,0,0,.44.45h1.55a.45.45,0,0,0,.44-.45v-6.76h8.56v6.76a.45.45,0,0,0,.44.45h1.55a.46.46,0,0,0,.44-.45V669.42A.46.46,0,0,0,893.93,669Z" transform="translate(-804.01 -429.37)"/><path class="cls-1" d="M905.54,675.76a4.92,4.92,0,0,0,0,9.82,5.36,5.36,0,0,0,3.46-1.17.36.36,0,0,0,0-.61l-.65-.88c-.19-.24-.35-.14-.63,0a4,4,0,0,1-2.08.68,2.71,2.71,0,0,1-2.69-2.5h6.36a.43.43,0,0,0,.42-.4c0-.17.05-.47.05-.63A4.21,4.21,0,0,0,905.54,675.76Zm-2.4,3.88a2.36,2.36,0,0,1,2.38-2.08,2.21,2.21,0,0,1,2.15,2.08Z" transform="translate(-804.01 -429.37)"/><path class="cls-1" d="M919.13,675.76a9.54,9.54,0,0,0-3.22.54.42.42,0,0,0-.31.54l.19.86c.07.26.23.44.51.37a10,10,0,0,1,2.62-.42c1.19,0,1.47.59,1.45,2.06a6.7,6.7,0,0,0-1.85-.28c-2.38,0-3.74,1.31-3.74,3a2.91,2.91,0,0,0,3,3.13,4.06,4.06,0,0,0,2.88-1.19l.23.63c.09.23.19.33.4.33H922a.46.46,0,0,0,.45-.45v-5C922.41,677.58,922.13,675.76,919.13,675.76Zm1.22,7a2.76,2.76,0,0,1-2.11,1.17,1.4,1.4,0,0,1-1.42-1.5c0-1,.77-1.54,1.89-1.54a3.61,3.61,0,0,1,1.64.37Z" transform="translate(-804.01 -429.37)"/><rect class="cls-1" x="124.69" y="239.6" width="2.22" height="16.37" rx="0.44"/><path class="cls-1" d="M942.71,683.29a.34.34,0,0,0-.53-.21,3.9,3.9,0,0,1-1.43.42c-.45,0-.75-.14-.75-.94v-4.63h2.39a.44.44,0,0,0,.44-.44v-1a.43.43,0,0,0-.44-.45H940v-2.62a.44.44,0,0,0-.42-.44l-1.33,0a.46.46,0,0,0-.45.45V676h-1a.43.43,0,0,0-.44.45v1a.44.44,0,0,0,.44.44h1v4.87c0,1.66.54,2.78,2.39,2.78a7.14,7.14,0,0,0,2.73-.7.38.38,0,0,0,.21-.56Z" transform="translate(-804.01 -429.37)"/><path class="cls-1" d="M953.55,675.76a4.76,4.76,0,0,0-2.81,1v-7.35a.46.46,0,0,0-.45-.44h-1.35a.46.46,0,0,0-.45.44V684.9a.46.46,0,0,0,.45.45h1.33a.43.43,0,0,0,.47-.45v-5.63a2.88,2.88,0,0,1,2.52-1.47c1.22,0,2,.84,2,2.36v4.74a.45.45,0,0,0,.45.45H957a.46.46,0,0,0,.44-.45v-4.7C957.45,677.65,956.19,675.76,953.55,675.76Z" transform="translate(-804.01 -429.37)"/><path class="cls-1" d="M972,676H970.7a.47.47,0,0,0-.49.26l-2.81,6.22h0l-2.9-6.22a.52.52,0,0,0-.4-.26h-1.54a.42.42,0,0,0-.4.61l4.07,8.42-3.13,6.71a.41.41,0,0,0,.39.63h1.41a.48.48,0,0,0,.4-.28l7.15-15.48A.4.4,0,0,0,972,676Z" transform="translate(-804.01 -429.37)"/><path class="cls-1" d="M991.74,685.58h-3.18a1,1,0,0,1-1.12-1,1.27,1.27,0,0,1,.95-1.14,7.05,7.05,0,0,0,2,.37,3.82,3.82,0,0,0,4-3.81,3.14,3.14,0,0,0-1-2.5l1.28-.35c.17,0,.26-.24.26-.4v-.59a.43.43,0,0,0-.44-.44h-4.09a4,4,0,0,0-4,4.09,3.76,3.76,0,0,0,.73,2.27,3.24,3.24,0,0,0-1.66,2.67,2.41,2.41,0,0,0,1.73,2.33v.07a2.59,2.59,0,0,0-1.38,2.2c0,1.52,1.33,3.21,4.63,3.21,3.11,0,5-1.83,5-3.88S993.77,685.58,991.74,685.58Zm-1.29-7.83a2.16,2.16,0,0,1,0,4.3,2.15,2.15,0,0,1,0-4.3Zm0,12.93c-1.43,0-2.44-.7-2.44-1.66s1.15-1.43,1.29-1.47c.68,0,1.38,0,2.06,0,1.52,0,1.75,1,1.75,1.33C993.07,690,991.83,690.68,990.41,690.68Z" transform="translate(-804.01 -429.37)"/><path class="cls-1" d="M1004.41,675.76a4.91,4.91,0,1,0,4.72,4.89A4.85,4.85,0,0,0,1004.41,675.76Zm0,7.81a2.79,2.79,0,0,1-2.65-2.92,2.65,2.65,0,1,1,5.29,0A2.78,2.78,0,0,1,1004.41,683.57Z" transform="translate(-804.01 -429.37)"/><path class="cls-1" d="M1019,675.76a4.91,4.91,0,1,0,4.72,4.89A4.85,4.85,0,0,0,1019,675.76Zm0,7.81a2.79,2.79,0,0,1-2.65-2.92,2.65,2.65,0,1,1,5.29,0A2.78,2.78,0,0,1,1019,683.57Z" transform="translate(-804.01 -429.37)"/><path class="cls-1" d="M1037.48,669h-1.36a.46.46,0,0,0-.44.44v6.85a5.66,5.66,0,0,0-2.25-.51,4.71,4.71,0,0,0-4.6,4.91,4.63,4.63,0,0,0,4.37,4.91,4.17,4.17,0,0,0,3-1.31l.19.68c.07.23.21.4.42.4h.7a.46.46,0,0,0,.44-.45V669.42A.46.46,0,0,0,1037.48,669Zm-1.78,13.19a2.51,2.51,0,0,1-2.22,1.4,2.65,2.65,0,0,1-2.48-2.9,2.71,2.71,0,0,1,2.67-2.87,3.94,3.94,0,0,1,2,.55Z" transform="translate(-804.01 -429.37)"/><path class="cls-1" d="M1045.66,682.33a1.63,1.63,0,1,0,1.64,1.64A1.62,1.62,0,0,0,1045.66,682.33Z" transform="translate(-804.01 -429.37)"/></svg>