<?xml version="1.0" encoding="UTF-8"?> <svg xmlns="http://www.w3.org/2000/svg" xmlns:xlink="http://www.w3.org/1999/xlink" viewBox="0 0 1326.09 344"><defs><style>.cls-1,.cls-2,.cls-3,.cls-5{stroke:#58595b;stroke-miterlimit:10;}.cls-1{fill:url(#New_Gradient_Swatch_1);}.cls-2{fill:url(#linear-gradient);}.cls-3{fill:url(#linear-gradient-2);}.cls-4{fill:url(#linear-gradient-3);}.cls-5{fill:none;}</style><linearGradient id="New_Gradient_Swatch_1" x1="14.48" y1="-52.3" x2="185.22" y2="374.54" gradientUnits="userSpaceOnUse"><stop offset="0" stop-color="#f00b51"></stop><stop offset="1" stop-color="#7366ff"></stop></linearGradient><linearGradient id="linear-gradient" x1="46.59" y1="6.98" x2="177.29" y2="333.72" gradientTransform="translate(52.32 -23.03) rotate(9.22)" xlink:href="#New_Gradient_Swatch_1"></linearGradient><linearGradient id="linear-gradient-2" x1="28.84" y1="25.6" x2="154.48" y2="339.7" gradientTransform="translate(31 -12.84) rotate(45)" xlink:href="#New_Gradient_Swatch_1"></linearGradient><linearGradient id="linear-gradient-3" x1="319.2" y1="153.82" x2="1325.28" y2="153.82" gradientUnits="userSpaceOnUse"><stop offset="0" stop-color="#f00b51"></stop><stop offset="1" stop-color="#7366ff"></stop></linearGradient></defs><g id="Layer_2" data-name="Layer 2"><g id="Layer_1-2" data-name="Layer 1"><path class="cls-1" d="M36.5,284v33c82.16,0,149-66.41,149-148V152.5H54.9C63,96.86,111.3,54,169.5,54V21c-82.16,0-149,66.41-149,148v16.5H151.1C143,241.14,94.7,284,36.5,284Z"></path><circle class="cls-2" cx="169" cy="313" r="30.5" transform="translate(-47.96 31.11) rotate(-9.22)"></circle><circle class="cls-3" cx="31" cy="31" r="30.5" transform="translate(-12.84 31) rotate(-45)"></circle><path d="M397,174l-38.92-12.32q-21-6.72-30-20.3t-9-35.7q0-31.64,14.7-41.72t51.66-10.08q35.55,0,60.76,6.44l-2.24,24.92q-31.92-1.11-57.4-1.12-19.32,0-25.76,3.78t-6.44,18.34q0,12,4.62,16.94T376,132l37.24,11.48q22.11,7,30.94,20.58t8.82,35.7q0,31.92-15.12,43t-53.48,11.06a319.51,319.51,0,0,1-62.72-6.16L324,221.86Q373,223,385.28,223q19.32,0,25.76-4.48t6.44-19q0-12.32-4.34-17.08T397,174Z"></path><path d="M599.89,222l1.67,26.53q-25.29,2.24-84.45,2.23-18.9,0-29.86-9.77T476,214.18V93.54q.27-17,11.25-26.81T517.11,57q59.17,0,84.45,2.23L599.89,86h-75q-7.5,0-10.7,3.63T511,102.2V136h79v27H511v42.8q0,8.94,3.19,12.57t10.7,3.63Z"></path><path d="M772,250H734.26l-15.35-59.7Q713.62,173,696.59,173L662,172.72V250H628V56.8q24.82-2.52,70-2.52,36.56,0,51.76,12.18T765,110.84q0,22.41-8.37,34.3T729,159.56V161a33.57,33.57,0,0,1,15.62,9q7.26,7,10,19.6ZM662,144h34.86q18.82-.27,25.72-6.75t6.89-24.17q0-17.72-6.89-23.9T696.86,83H662Z"></path><path d="M916.89,222l1.67,26.53q-25.29,2.24-84.45,2.23-18.89,0-29.86-9.77T793,214.18V93.54q.27-17,11.25-26.81T834.11,57q59.17,0,84.45,2.23L916.89,86h-75q-7.5,0-10.7,3.63T828,102.2V136h79v27H828v42.8q0,8.94,3.19,12.57t10.7,3.63Z"></path><path d="M1097.66,57h36.07q13.14,0,13.7,13.71L1155.26,250h-34.42l-6.45-165h-5L1075.9,214.18Q1072.79,226,1061.26,226h-27q-11.82,0-14.92-11.82L985.28,85h-4.44l-6.17,165H940.53L947.8,70.71Q948.36,57,961.5,57h36.34q11.5,0,14.3,11.78l27.48,104.86q.56,2,5.89,26.36h4.21q3.08-16.26,5.88-26.64l27.48-104.58Q1086.17,57,1097.66,57Z"></path><path d="M1262,184.6V250h-35V184L1163.44,57h37l35.28,74.83q2,4.47,7.84,23.17h2.24q5.88-18.7,7.84-23.17L1288.88,57h36.4Z"></path><path class="cls-4" d="M397,174l-38.92-12.32q-21-6.72-30-20.3t-9-35.7q0-31.64,14.7-41.72t51.66-10.08q35.55,0,60.76,6.44l-2.24,24.92q-31.92-1.11-57.4-1.12-19.32,0-25.76,3.78t-6.44,18.34q0,12,4.62,16.94T376,132l37.24,11.48q22.11,7,30.94,20.58t8.82,35.7q0,31.92-15.12,43t-53.48,11.06a319.51,319.51,0,0,1-62.72-6.16L324,221.86Q373,223,385.28,223q19.32,0,25.76-4.48t6.44-19q0-12.32-4.34-17.08T397,174Z"></path><path class="cls-4" d="M599.89,222l1.67,26.53q-25.29,2.24-84.45,2.23-18.9,0-29.86-9.77T476,214.18V93.54q.27-17,11.25-26.81T517.11,57q59.17,0,84.45,2.23L599.89,86h-75q-7.5,0-10.7,3.63T511,102.2V136h79v27H511v42.8q0,8.94,3.19,12.57t10.7,3.63Z"></path><path class="cls-4" d="M772,250H734.26l-15.35-59.7Q713.62,173,696.59,173L662,172.72V250H628V56.8q24.82-2.52,70-2.52,36.56,0,51.76,12.18T765,110.84q0,22.41-8.37,34.3T729,159.56V161a33.57,33.57,0,0,1,15.62,9q7.26,7,10,19.6ZM662,144h34.86q18.82-.27,25.72-6.75t6.89-24.17q0-17.72-6.89-23.9T696.86,83H662Z"></path><path class="cls-4" d="M916.89,222l1.67,26.53q-25.29,2.24-84.45,2.23-18.89,0-29.86-9.77T793,214.18V93.54q.27-17,11.25-26.81T834.11,57q59.17,0,84.45,2.23L916.89,86h-75q-7.5,0-10.7,3.63T828,102.2V136h79v27H828v42.8q0,8.94,3.19,12.57t10.7,3.63Z"></path><path class="cls-4" d="M1097.66,57h36.07q13.14,0,13.7,13.71L1155.26,250h-34.42l-6.45-165h-5L1075.9,214.18Q1072.79,226,1061.26,226h-27q-11.82,0-14.92-11.82L985.28,85h-4.44l-6.17,165H940.53L947.8,70.71Q948.36,57,961.5,57h36.34q11.5,0,14.3,11.78l27.48,104.86q.56,2,5.89,26.36h4.21q3.08-16.26,5.88-26.64l27.48-104.58Q1086.17,57,1097.66,57Z"></path><path class="cls-4" d="M1262,184.6V250h-35V184L1163.44,57h37l35.28,74.83q2,4.47,7.84,23.17h2.24q5.88-18.7,7.84-23.17L1288.88,57h36.4Z"></path><path class="cls-5" d="M397,174l-38.92-12.32q-21-6.72-30-20.3t-9-35.7q0-31.64,14.7-41.72t51.66-10.08q35.55,0,60.76,6.44l-2.24,24.92q-31.92-1.11-57.4-1.12-19.32,0-25.76,3.78t-6.44,18.34q0,12,4.62,16.94T376,132l37.24,11.48q22.11,7,30.94,20.58t8.82,35.7q0,31.92-15.12,43t-53.48,11.06a319.51,319.51,0,0,1-62.72-6.16L324,221.86Q373,223,385.28,223q19.32,0,25.76-4.48t6.44-19q0-12.32-4.34-17.08T397,174Z"></path><path class="cls-5" d="M599.89,222l1.67,26.53q-25.29,2.24-84.45,2.23-18.9,0-29.86-9.77T476,214.18V93.54q.27-17,11.25-26.81T517.11,57q59.17,0,84.45,2.23L599.89,86h-75q-7.5,0-10.7,3.63T511,102.2V136h79v27H511v42.8q0,8.94,3.19,12.57t10.7,3.63Z"></path><path class="cls-5" d="M772,250H734.26l-15.35-59.7Q713.62,173,696.59,173L662,172.72V250H628V56.8q24.82-2.52,70-2.52,36.56,0,51.76,12.18T765,110.84q0,22.41-8.37,34.3T729,159.56V161a33.57,33.57,0,0,1,15.62,9q7.26,7,10,19.6ZM662,144h34.86q18.82-.27,25.72-6.75t6.89-24.17q0-17.72-6.89-23.9T696.86,83H662Z"></path><path class="cls-5" d="M916.89,222l1.67,26.53q-25.29,2.24-84.45,2.23-18.89,0-29.86-9.77T793,214.18V93.54q.27-17,11.25-26.81T834.11,57q59.17,0,84.45,2.23L916.89,86h-75q-7.5,0-10.7,3.63T828,102.2V136h79v27H828v42.8q0,8.94,3.19,12.57t10.7,3.63Z"></path><path class="cls-5" d="M1097.66,57h36.07q13.14,0,13.7,13.71L1155.26,250h-34.42l-6.45-165h-5L1075.9,214.18Q1072.79,226,1061.26,226h-27q-11.82,0-14.92-11.82L985.28,85h-4.44l-6.17,165H940.53L947.8,70.71Q948.36,57,961.5,57h36.34q11.5,0,14.3,11.78l27.48,104.86q.56,2,5.89,26.36h4.21q3.08-16.26,5.88-26.64l27.48-104.58Q1086.17,57,1097.66,57Z"></path><path class="cls-5" d="M1262,184.6V250h-35V184L1163.44,57h37l35.28,74.83q2,4.47,7.84,23.17h2.24q5.88-18.7,7.84-23.17L1288.88,57h36.4Z"></path></g></g></svg> 